<svg width="463" height="463" viewBox="0 0 463 463" fill="none" xmlns="http://www.w3.org/2000/svg">
<path d="M93.3333 276.271C68.584 276.271 44.844 286.104 27.3387 303.604C9.83335 321.109 0 344.849 0 369.604C0 394.353 9.83335 418.093 27.3387 435.599C44.844 453.104 68.584 462.937 93.3333 462.937C118.088 462.937 141.828 453.104 159.333 435.599C176.833 418.093 186.667 394.353 186.667 369.604V336H276.271V369.604C276.271 394.353 286.104 418.093 303.604 435.599C321.109 453.104 344.849 462.937 369.604 462.937C394.353 462.937 418.093 453.104 435.599 435.599C453.104 418.093 462.937 394.353 462.937 369.604C462.937 344.849 453.104 321.109 435.599 303.604C418.093 286.104 394.353 276.271 369.604 276.271H336V186.667H369.604C394.353 186.667 418.093 176.833 435.599 159.333C453.104 141.828 462.937 118.088 462.937 93.3333C462.937 68.584 453.104 44.844 435.599 27.3387C418.093 9.83333 394.353 0 369.604 0C344.849 0 321.109 9.83333 303.604 27.3387C286.104 44.844 276.271 68.584 276.271 93.3333V126.937H186.667V93.3333C186.667 68.584 176.833 44.844 159.333 27.3387C141.828 9.83333 118.088 0 93.3333 0C68.584 0 44.844 9.83333 27.3387 27.3387C9.83335 44.844 0 68.584 0 93.3333C0 118.088 9.83335 141.828 27.3387 159.333C44.844 176.833 68.584 186.667 93.3333 186.667H126.937V276.271H93.3333ZM126.937 369.604C126.937 378.515 123.396 387.057 117.094 393.359C110.791 399.661 102.244 403.202 93.3336 403.202C84.4222 403.202 75.8803 399.661 69.5789 393.359C63.2768 387.057 59.7352 378.515 59.7352 369.604C59.7352 360.693 63.2768 352.145 69.5789 345.844C75.8811 339.542 84.423 336 93.3336 336H126.938L126.937 369.604ZM336.004 93.3373L335.999 93.3321C335.999 84.4206 339.54 75.8788 345.843 69.5775C352.145 63.2753 360.692 59.7337 369.603 59.7337C378.514 59.7337 387.056 63.2753 393.357 69.5775C399.659 75.8796 403.201 84.4214 403.201 93.3321C403.201 102.244 399.659 110.791 393.357 117.092C387.055 123.394 378.513 126.936 369.603 126.936H335.999L336.004 93.3373ZM335.999 336.004H369.603C378.514 336.004 387.056 339.546 393.357 345.848C399.66 352.15 403.201 360.697 403.201 369.608C403.201 378.519 399.66 387.061 393.357 393.362C387.055 399.665 378.513 403.206 369.603 403.206C360.691 403.206 352.144 399.665 345.843 393.362C339.541 387.06 335.999 378.518 335.999 369.608L335.999 336.004ZM186.665 186.671H276.269V276.275H186.665V186.671ZM93.3321 126.941C84.4207 126.941 75.8788 123.4 69.5775 117.098C63.2753 110.795 59.7337 102.248 59.7337 93.3376C59.7337 84.4261 63.2753 75.8843 69.5775 69.5829C75.8796 63.2808 84.4215 59.7392 93.3321 59.7392C102.244 59.7392 110.791 63.2808 117.092 69.5829C123.394 75.8851 126.936 84.4269 126.936 93.3376V126.942L93.3321 126.941Z" fill="#111111"/>
</svg>
